# xmcd
#
# Track frame offsets:
#	150
#	20205
#	33600
#	49085
#	65985
#	84162
#	99997
#	116057
#	132580
#	149457
#	167537
#	186232
#	202287
#	218059
#	234157
#
# Disc length: 3337 seconds
#
# Revision: 1
# Processed by: cddbd v1.5.1PL0 Copyright (c) Steve Scherf et al.
# Submitted via: audiograbber 1.83.01
#
DISCID=e20d070f
DTITLE=Sound Choice - 8436 [Country Hits Vol 93]
DYEAR=1900
DGENRE=Karaoke
TTITLE0=Blackhawk - Postmarked Birmingham
TTITLE1=Garth Brooks - She's Gonna Make It
TTITLE2=Clay Walker - Then What
TTITLE3=Reba McEntire - What If
TTITLE4=Melodie Crittenden - Broken Road
TTITLE5=Shania Twain - You're Still The One
TTITLE6=Jeff Carson - Cheatin' On Her Heart
TTITLE7=Alan Jackson - A House With No Curtains
TTITLE8=John Anderson - Takin' The Country Back
TTITLE9=Shania Twain and Bryan White - From This Moment On
TTITLE10=Mindy McCready - You'll Never Know
TTITLE11=Jo Dee Messina - Bye Bye
TTITLE12=Trisha Yearwood - Perfect Love
TTITLE13=Michael Peterson - Too Good To Be True
TTITLE14=Trace Adkins - Lonely Won't Leave Me Alone
EXTD=
EXTT0=
EXTT1=
EXTT2=
EXTT3=
EXTT4=
EXTT5=
EXTT6=
EXTT7=
EXTT8=
EXTT9=
EXTT10=
EXTT11=
EXTT12=
EXTT13=
EXTT14=
PLAYORDER=
